<svg xmlns="http://www.w3.org/2000/svg" viewBox="0 0 520 96" role="img" aria-labelledby="title">
  <title id="title">Diskgolfguiden mørk logo</title>
  <g>
    <circle cx="48" cy="48" r="42" fill="none" stroke="#0F172A" stroke-width="8"/>
    <path d="M18 50c9-14 51-20 64-7-10 15-52 21-64 7Z" fill="#22C55E"/>
    <path d="M25 49c14-7 34-9 50-5" fill="none" stroke="#FFFFFF" stroke-width="5" stroke-linecap="round"/>
    <path d="M51 14 61 44 82 50 59 58 48 82 38 52 14 46 39 38 51 14Z" fill="#0F172A"/>
    <path d="M51 28 56 45 68 49 55 53 49 67 44 50 31 47 45 42 51 28Z" fill="#FFFFFF"/>
  </g>
  <text x="112" y="58" fill="#0F172A" font-family="Inter, Manrope, Arial, sans-serif" font-size="38" font-weight="800">Diskgolfguiden</text>
  <text x="114" y="80" fill="#475569" font-family="Inter, Manrope, Arial, sans-serif" font-size="14" font-weight="700">Norske guider, baner, utstyr og turneringer</text>
</svg>
